<?xml version="1.0" standalone="no"?><!DOCTYPE svg PUBLIC "-//W3C//DTD SVG 1.1//EN" "http://www.w3.org/Graphics/SVG/1.1/DTD/svg11.dtd"><svg t="1511044298517" class="icon" style="" viewBox="0 0 1024 1024" version="1.1" xmlns="http://www.w3.org/2000/svg" p-id="6137" xmlns:xlink="http://www.w3.org/1999/xlink" width="32" height="32"><defs><style type="text/css"></style></defs><path d="M512 0c283.306667 0 512 228.693333 512 512s-228.693333 512-512 512S0 795.306667 0 512 228.693333 0 512 0z" fill="#ffffff" p-id="6138" class="selected"></path><path d="M221.866667 529.066667c0-10.24 3.413333-17.066667 10.24-23.893334 6.826667-6.826667 13.653333-10.24 23.893333-10.24H477.866667v242.346667c0 10.24-3.413333 17.066667-10.24 23.893333-6.826667 6.826667-13.653333 10.24-23.893334 10.24H252.586667c-10.24 0-17.066667-3.413333-23.893334-10.24-6.826667-6.826667-10.24-13.653333-10.24-23.893333v-208.213333h3.413334z m515.413333-30.72c10.24 0 17.066667 3.413333 23.893333 10.24 6.826667 6.826667 10.24 13.653333 10.24 23.893333v208.213333c0 10.24-3.413333 17.066667-10.24 23.893334-6.826667 6.826667-13.653333 10.24-23.893333 10.24h-194.56c-10.24 0-17.066667-3.413333-23.893333-10.24-6.826667-6.826667-10.24-13.653333-10.24-23.893334v-242.346666h228.693333z m17.066667-146.773334c10.24 0 17.066667 3.413333 23.893333 10.24 6.826667 6.826667 10.24 13.653333 10.24 23.893334v47.786666c0 10.24-3.413333 17.066667-10.24 23.893334-6.826667 6.826667-13.653333 10.24-23.893333 10.24H512v-78.506667c0-6.826667 0-10.24 3.413333-13.653333l10.24-10.24c-3.413333 3.413333-6.826667 6.826667-13.653333 6.826666-3.413333 3.413333-10.24 3.413333-17.066667 3.413334-10.24 0-20.48-3.413333-27.306666-10.24 6.826667 6.826667 13.653333 13.653333 13.653333 27.306666v78.506667H235.52c-10.24 0-17.066667-3.413333-23.893333-10.24S204.8 443.733333 204.8 433.493333v-47.786666c0-10.24 3.413333-17.066667 10.24-23.893334s13.653333-10.24 23.893333-10.24h208.213334c6.826667 0 13.653333 3.413333 20.48 6.826667l-6.826667-6.826667H303.786667c-10.24 0-17.066667-3.413333-23.893334-10.24-6.826667-6.826667-10.24-13.653333-10.24-23.893333V276.48c0-10.24 3.413333-20.48 10.24-27.306667 6.826667-3.413333 13.653333-10.24 23.893334-10.24 13.653333 0 27.306667 0 40.96 3.413334 13.653333 3.413333 27.306667 6.826667 40.96 13.653333 13.653333 3.413333 23.893333 10.24 37.546666 17.066667 10.24 6.826667 20.48 13.653333 30.72 23.893333 3.413333-6.826667 10.24-13.653333 17.066667-17.066667 6.826667-3.413333 13.653333-6.826667 23.893333-6.826666 10.24 0 17.066667 3.413333 23.893334 6.826666 6.826667 3.413333 13.653333 10.24 17.066666 17.066667 10.24-6.826667 17.066667-13.653333 30.72-20.48 10.24-6.826667 23.893333-13.653333 34.133334-20.48 13.653333-6.826667 27.306667-10.24 40.96-13.653333s27.306667-3.413333 44.373333-3.413334c10.24 0 17.066667 3.413333 23.893333 10.24 6.826667 6.826667 10.24 17.066667 10.24 27.306667v37.546667c0 10.24-3.413333 20.48-10.24 27.306666-6.826667 6.826667-13.653333 10.24-23.893333 10.24h-153.6l-3.413333 3.413334-3.413334 3.413333c6.826667-3.413333 10.24-6.826667 20.48-6.826667h208.213334z m-194.56-13.653333h81.92c3.413333 0 6.826667 0 10.24-3.413333 3.413333-3.413333 3.413333-6.826667 3.413333-10.24v-20.48c0-3.413333 0-6.826667-3.413333-10.24-3.413333-3.413333-6.826667-3.413333-10.24-3.413334l-81.92 40.96v6.826667z m-129.706667-10.24l-81.92-40.96c-3.413333 0-6.826667 0-10.24 3.413333-3.413333 6.826667-3.413333 10.24-3.413333 13.653334v17.066666c0 3.413333 0 10.24 3.413333 10.24 3.413333 3.413333 6.826667 3.413333 10.24 3.413334h81.92v-6.826667z" fill="#d4237a" p-id="6139" class="selected"></path></svg>